<?xml version="1.0" encoding="UTF-8"?>
<svg id="Layer_1" data-name="Layer 1" xmlns="http://www.w3.org/2000/svg" viewBox="0 0 1366 768">
  <defs>
    <style>
      .cls-1 {
        fill: #111;
        stroke-width: 0px;
      }
    </style>
  </defs>
  <path class="cls-1" d="m1115.99,403.72c-5.22,12.28-10.65,24.46-15.55,36.84-2.92,7.38-7.99,10.6-15.68,10.54-9-.07-17.99.13-26.99,0-15.11-.24-20.66-8.68-14.72-22.69,17.7-41.67,35.5-83.26,53.25-124.89,7.41-17.4,15.05-34.7,22.13-52.23,3.5-8.62,9.24-12.67,18.48-12.44,9.93.24,19.86.2,29.78.09,8.49-.11,13.77,3.76,17.08,11.6,22.63,53.68,45.43,107.31,68.23,160.94,9.22,21.66,27.81,64.93,27.81,64.93l3.86,9.22s4.45,10.9,6.72,16.34c7.28,17.47,2.24,24.94-16.97,24.94-80.99.02-161.98.02-242.95.02-2.5,0-4.99.11-7.45-.09-11.72-1.01-17.06-9.28-12.83-20.12,2.83-7.21,6.46-14.14,8.98-21.44,3.69-10.62,10.51-14.6,21.83-14.51,54.91.41,109.84.09,164.75.32,7.43.04,9.03-1.06,5.81-8.59-19.13-44.76-37.74-89.76-56.59-134.63-.44-1.03-.66-2.29-1.28-3.39-1.08-1.93-3.97-1.64-4.83.4-9.69,23.11-19.44,46.3-29.17,69.51l-3.71,9.33Z"/>
  <path class="cls-1" d="m480.13,403.72c-5.22,12.28-10.65,24.46-15.55,36.84-2.92,7.38-7.99,10.6-15.68,10.54-9-.07-17.99.13-26.99,0-15.11-.24-20.66-8.68-14.72-22.69,17.7-41.67,35.5-83.26,53.25-124.89,7.41-17.4,15.05-34.7,22.13-52.23,3.5-8.62,9.24-12.67,18.48-12.44,9.93.24,19.86.2,29.78.09,8.49-.11,13.77,3.76,17.08,11.6,22.63,53.68,45.43,107.31,68.23,160.94,9.22,21.66,27.81,64.93,27.81,64.93l3.86,9.22s4.45,10.9,6.72,16.34c7.28,17.47,2.24,24.94-16.97,24.94-80.99.02-161.98.02-242.95.02-2.5,0-4.99.11-7.45-.09-11.72-1.01-17.06-9.28-12.83-20.12,2.83-7.21,6.46-14.14,8.98-21.44,3.69-10.62,10.51-14.6,21.83-14.51,54.91.41,109.84.09,164.75.32,7.43.04,9.03-1.06,5.81-8.59-19.13-44.76-37.74-89.76-56.59-134.63-.44-1.03-.66-2.29-1.28-3.39-1.08-1.93-3.97-1.64-4.83.4-9.69,23.11-19.44,46.3-29.17,69.51l-3.71,9.33Z"/>
  <path class="cls-1" d="m89.63,293.21c-.19-.02-.37-.06-.56-.07-8.21-1.23-11.29-6.59-11.36-14.29-.06-6.82-.06-13.63,0-20.45.09-15.16,4.21-19.33,19.3-19.35,35.95-.04,71.92.39,107.87-.15,27.87-.41,54.28,3.78,77.77,19.93,21.93,15.08,33.39,46.65,34.1,72.34.76,27.57-8.51,54.34-30.87,71.54-5.77,4.44-12.15,8.07-18.93,10.71-6.99,2.72-2.61,6.17-.69,9.13,16.88,26,33.83,51.95,50.85,77.84,3.86,5.87,7.47,11.57,3.37,18.83-3.87,6.89-10.41,7.02-17.02,6.87-45.92-.99-32.17,6.65-56.74-31.13-13.75-21.14-27.1-42.54-40.42-63.96-2.33-3.74-5.27-4.62-9.28-4.6-18.29.09-36.6.3-54.89-.09-6.26-.15-8.01,1.97-7.95,7.94.22,24.81.15,49.62.06,74.41-.06,13.04-4.43,17.36-17.29,17.43-8.07.04-16.13.19-24.18-.06-9.67-.28-14.9-4.77-14.96-14.1-.24-42.17-.26-84.34.02-126.51.06-9.59,6.84-14.83,17.71-14.85,36.92-.09,73.84.13,110.74-.13,21.11-.15,49.73-3.42,53.39-29.41,3.58-25.46-11.75-44.35-38.74-46.21-17.88-1.23-35.89-.6-53.85-.76-25.35-.24-50.72-.45-76.07-.65-.11-.02-.24-.04-.35-.06l-1.01-.13Z"/>
  <path class="cls-1" d="m804.78,458.6c0-16.74.17-33.49-.08-50.23-.1-6.84,1.78-12.64,5.66-18.21,31.98-45.93,64.05-91.8,95.56-138.05,6.45-9.47,13.58-14.48,25.26-13.31,7.68.77,15.49.08,23.25.14,6.35.06,12.5.67,15.98,7.22,3.58,6.74,1.23,12.35-2.75,18.08-33.43,48.09-66.67,96.3-100.19,144.32-3.56,5.1-5.3,10.05-5.25,16.28.24,28.83.16,57.67.06,86.51-.04,13.5-4.33,17.68-17.85,17.85-8.06.1-16.13.31-24.19.06-10.4-.33-15.24-5.24-15.35-15.77-.19-18.29-.05-36.59-.05-54.88h-.05Z"/>
  <path class="cls-1" d="m777.21,339.18c-21.92-.18-31.02-5.07-40.74-21.06-11.24-18.5-24.5-35.79-37-53.51-4-5.67-6.23-11.42-3.05-18.19,3.21-6.84,9.43-7.34,15.78-7.39,9.93-.07,19.86.15,29.78-.07,6.89-.16,11.84,2.74,15.66,8.24,15.73,22.66,31.49,45.3,47.24,67.95,3.83,5.51,5.01,11.35,1.64,17.48-3.13,5.69-8.59,6.58-14.41,6.56-4.96-.01-9.93,0-14.89,0Z"/>
</svg>