<?xml version="1.0" encoding="UTF-8"?>
<svg id="Layer_1" data-name="Layer 1" xmlns="http://www.w3.org/2000/svg" viewBox="0 0 1366 768">
  <defs>
    <style>
      .cls-1 {
        fill: #34c5b9;
        stroke-width: 0px;
      }
    </style>
  </defs>
  <path class="cls-1" d="m1023.57,685.16H342.43c-2.22,0-4.28-1.19-5.39-3.11-1.11-1.92-1.11-4.3,0-6.22L677.61,85.95c1.11-1.93,3.17-3.11,5.39-3.11s4.28,1.19,5.39,3.11l340.57,589.88c1.11,1.92,1.11,4.3,0,6.22-1.11,1.92-3.17,3.11-5.39,3.11Zm-670.35-12.45h659.57L683,101.51l-329.78,571.2Z"/>
  <path class="cls-1" d="m925.71,632.41h-485.42c-2.23,0-4.28-1.19-5.4-3.12-1.11-1.93-1.11-4.31.01-6.23l242.71-417.92c1.11-1.92,3.17-3.1,5.38-3.1s4.27,1.18,5.38,3.1l242.71,417.92c1.12,1.93,1.12,4.3.01,6.23-1.11,1.93-3.17,3.12-5.39,3.12Zm-474.6-12.45h463.79l-231.89-399.3-231.89,399.3Z"/>
  <path class="cls-1" d="m836.87,580.59h-307.74c-2.23,0-4.28-1.19-5.39-3.12-1.11-1.93-1.11-4.3,0-6.23l153.87-265.33c1.11-1.92,3.17-3.1,5.38-3.1s4.27,1.18,5.38,3.1l153.87,265.33c1.12,1.92,1.12,4.3.01,6.23-1.11,1.93-3.17,3.12-5.39,3.12Zm-296.93-12.45h286.13l-143.06-246.69-143.06,246.69Z"/>
  <path class="cls-1" d="m744.33,526.92h-122.66c-2.21,0-4.25-1.17-5.37-3.08-1.12-1.9-1.14-4.26-.06-6.19l61.33-109.53c1.1-1.97,3.18-3.18,5.43-3.18s4.33,1.22,5.43,3.18l61.33,109.53c1.08,1.93,1.06,4.28-.06,6.19-1.12,1.91-3.16,3.08-5.37,3.08Zm-112.04-12.45h101.42l-50.71-90.56-50.71,90.56Z"/>
</svg>