<?xml version="1.0" encoding="UTF-8"?>
<svg id="Layer_1" data-name="Layer 1" xmlns="http://www.w3.org/2000/svg" viewBox="0 0 1366 768">
  <defs>
    <style>
      .cls-1 {
        fill: #111;
      }

      .cls-1, .cls-2 {
        stroke-width: 0px;
      }

      .cls-2 {
        fill: #fff;
      }
    </style>
  </defs>
  <rect class="cls-1" x="-51.33" y="-56.4" width="1483.21" height="880.51"/>
  <g>
    <g>
      <path class="cls-2" d="m402.19,529.14H73.92c-1.07,0-2.06-.57-2.6-1.5-.54-.93-.54-2.07,0-3L235.46,240.36c.54-.93,1.53-1.5,2.6-1.5s2.06.57,2.6,1.5l164.13,284.29c.54.93.54,2.07,0,3-.54.93-1.53,1.5-2.6,1.5Zm-323.07-6h317.87L238.06,247.86l-158.94,275.29Z"/>
      <path class="cls-2" d="m355.03,503.72H121.09c-1.07,0-2.06-.57-2.6-1.5-.54-.93-.53-2.08,0-3l116.97-201.41c.54-.92,1.53-1.49,2.59-1.49s2.06.57,2.59,1.49l116.97,201.41c.54.93.54,2.07,0,3-.54.93-1.53,1.5-2.6,1.5Zm-228.73-6h223.52l-111.76-192.44-111.76,192.44Z"/>
      <path class="cls-2" d="m312.21,478.75h-148.31c-1.07,0-2.06-.57-2.6-1.5-.54-.93-.53-2.07,0-3l74.16-127.87c.54-.93,1.53-1.5,2.6-1.5s2.06.57,2.6,1.5l74.16,127.87c.54.93.54,2.07,0,3-.54.93-1.53,1.5-2.6,1.5Zm-143.11-6h137.9l-68.95-118.89-68.95,118.89Z"/>
      <path class="cls-2" d="m267.62,452.88h-59.12c-1.06,0-2.05-.56-2.59-1.48-.54-.92-.55-2.05-.03-2.98l29.56-52.79c.53-.95,1.53-1.53,2.62-1.53s2.09.59,2.62,1.53l29.56,52.79c.52.93.51,2.06-.03,2.98-.54.92-1.52,1.48-2.59,1.48Zm-54-6h48.88l-24.44-43.65-24.44,43.65Z"/>
    </g>
    <g>
      <path class="cls-2" d="m1176.34,397.19c-3.49,8.21-7.12,16.35-10.4,24.63-1.96,4.93-5.34,7.09-10.49,7.05-6.02-.05-12.03.09-18.05,0-10.1-.16-13.81-5.8-9.84-15.17,11.83-27.86,23.74-55.67,35.61-83.5,4.96-11.63,10.06-23.2,14.8-34.92,2.34-5.77,6.18-8.47,12.35-8.32,6.64.16,13.28.14,19.91.06,5.68-.07,9.2,2.52,11.42,7.76,15.13,35.89,30.38,71.75,45.62,107.6,6.16,14.48,18.59,43.42,18.59,43.42l2.58,6.16s2.98,7.29,4.5,10.92c4.87,11.68,1.49,16.68-11.35,16.68-54.15.01-108.3.01-162.44.01-1.67,0-3.34.07-4.98-.06-7.83-.67-11.41-6.2-8.58-13.45,1.89-4.82,4.32-9.45,6-14.33,2.47-7.1,7.02-9.76,14.6-9.7,36.71.27,73.44.06,110.16.21,4.97.02,6.04-.71,3.89-5.74-12.79-29.93-25.23-60.02-37.84-90.02-.29-.69-.44-1.53-.86-2.27-.72-1.29-2.66-1.1-3.23.27-6.48,15.45-13,30.96-19.51,46.48l-2.48,6.24Z"/>
      <path class="cls-2" d="m751.19,397.19c-3.49,8.21-7.12,16.35-10.4,24.63-1.96,4.93-5.34,7.09-10.49,7.05-6.02-.05-12.03.09-18.05,0-10.1-.16-13.81-5.8-9.84-15.17,11.83-27.86,23.74-55.67,35.61-83.5,4.96-11.63,10.06-23.2,14.8-34.92,2.34-5.77,6.18-8.47,12.35-8.32,6.64.16,13.28.14,19.91.06,5.68-.07,9.2,2.52,11.42,7.76,15.13,35.89,30.38,71.75,45.62,107.6,6.16,14.48,18.59,43.42,18.59,43.42l2.58,6.16s2.98,7.29,4.5,10.92c4.87,11.68,1.49,16.68-11.35,16.68-54.15.01-108.3.01-162.44.01-1.67,0-3.34.07-4.98-.06-7.83-.67-11.41-6.2-8.58-13.45,1.89-4.82,4.32-9.45,6-14.33,2.47-7.1,7.02-9.76,14.6-9.7,36.71.27,73.44.06,110.16.21,4.97.02,6.04-.71,3.89-5.74-12.79-29.93-25.23-60.02-37.84-90.02-.29-.69-.44-1.53-.86-2.27-.72-1.29-2.66-1.1-3.23.27-6.48,15.45-13,30.96-19.51,46.48l-2.48,6.24Z"/>
      <path class="cls-2" d="m490.1,323.3c-.12-.01-.25-.04-.37-.05-5.49-.82-7.55-4.41-7.6-9.55-.04-4.56-.04-9.12,0-13.67.06-10.14,2.81-12.93,12.9-12.94,24.04-.02,48.09.26,72.12-.1,18.63-.27,36.29,2.53,52,13.33,14.66,10.08,22.33,31.19,22.8,48.37.51,18.44-5.69,36.33-20.64,47.83-3.86,2.97-8.13,5.39-12.66,7.16-4.67,1.82-1.74,4.12-.46,6.1,11.28,17.39,22.62,34.73,34,52.05,2.58,3.92,4.99,7.73,2.25,12.59-2.59,4.61-6.96,4.7-11.38,4.6-30.7-.66-21.51,4.45-37.94-20.81-9.19-14.14-18.12-28.45-27.03-42.77-1.56-2.5-3.52-3.09-6.2-3.08-12.23.06-24.47.2-36.7-.06-4.18-.1-5.36,1.32-5.32,5.31.15,16.59.1,33.18.04,49.75-.04,8.72-2.96,11.61-11.56,11.66-5.39.02-10.79.12-16.17-.04-6.46-.19-9.96-3.19-10-9.43-.16-28.2-.17-56.39.01-84.59.04-6.41,4.57-9.91,11.84-9.93,24.68-.06,49.37.09,74.04-.09,14.12-.1,33.25-2.28,35.69-19.67,2.39-17.02-7.86-29.65-25.9-30.9-11.96-.82-24-.4-36-.51-16.95-.16-33.91-.3-50.86-.44-.07-.01-.16-.02-.24-.04l-.67-.09Z"/>
      <path class="cls-2" d="m968.26,433.88c0-11.19.11-22.39-.06-33.58-.07-4.57,1.19-8.45,3.78-12.18,21.38-30.71,42.83-61.38,63.89-92.3,4.31-6.33,9.08-9.68,16.89-8.9,5.13.51,10.36.05,15.54.1,4.25.04,8.36.45,10.68,4.83,2.39,4.5.82,8.26-1.84,12.09-22.35,32.15-44.58,64.39-66.99,96.5-2.38,3.41-3.55,6.72-3.51,10.88.16,19.28.11,38.56.04,57.84-.03,9.02-2.9,11.82-11.93,11.94-5.39.07-10.79.21-16.17.04-6.95-.22-10.19-3.5-10.27-10.55-.13-12.23-.04-24.46-.04-36.69h-.03Z"/>
      <path class="cls-2" d="m949.83,354.03c-14.65-.12-20.74-3.39-27.24-14.08-7.51-12.37-16.38-23.93-24.74-35.78-2.67-3.79-4.17-7.63-2.04-12.16,2.15-4.57,6.3-4.91,10.55-4.94,6.64-.05,13.28.1,19.91-.05,4.61-.1,7.92,1.83,10.47,5.51,10.51,15.15,21.06,30.29,31.58,45.43,2.56,3.68,3.35,7.59,1.1,11.68-2.09,3.81-5.75,4.4-9.63,4.39-3.32,0-6.64,0-9.95,0Z"/>
    </g>
  </g>
</svg>